<?xml version="1.0" encoding="UTF-8" standalone="no"?>
<svg width="678px" height="678px" viewBox="0 0 678 678" version="1.1" xmlns="http://www.w3.org/2000/svg" xmlns:xlink="http://www.w3.org/1999/xlink" xmlns:sketch="http://www.bohemiancoding.com/sketch/ns">
    <!-- Generator: Sketch 3.0.1 (7597) - http://www.bohemiancoding.com/sketch -->
    <title>logo</title>
    <description>Created with Sketch.</description>
    <defs></defs>
    <g id="Page-1" stroke="none" stroke-width="1" fill="none" fill-rule="evenodd" sketch:type="MSPage">
        <g id="note-outlines" sketch:type="MSLayerGroup" transform="translate(371.000000, 368.000000) rotate(-315.000000) translate(-371.000000, -368.000000) translate(106.500000, 93.500000)">
            <path d="M335.928694,1.6363187e-06 C313.063328,40.1080391 300,86.5284685 300,136.000002 C300,182.560657 311.571276,226.418695 331.995003,264.855292 C358.607965,307.194462 374,357.299731 374,411.000002 C374,461.368717 360.45856,508.57466 336.817647,549.175864 L336.817694,549.175783 L37,549.175834 L37,548.862213 L37,548.862213 C60.528181,508.331626 74,461.23907 74,411.000002 C74,364.439347 62.428724,320.581308 42.0049974,282.144711 C15.3920412,239.805561 0,189.700283 0,136.000002 C0,86.5284647 13.06333,40.108032 35.9286933,1.13686838e-13 L335.928694,1.6365114e-06 L335.928694,1.6363187e-06 Z M38.0411397,102.325655 C36.6936822,113.361814 36,124.599898 36,136 C36,182.560655 47.571276,226.418694 67.9950026,264.855291 C94.607965,307.194461 110,357.299729 110,411 C110,423.902418 109.111443,436.597302 107.392184,449.026798 L107.392184,449.026798 C120.380348,450.766409 132.411623,456.383842 141.68486,465.98656 C154.026475,478.766676 159.14294,496.182651 157.435609,514 L261.732585,514 C260.652509,501.166075 263.446345,488.417285 270.599707,477.402072 C284.185847,456.481252 309.880967,447.383128 336.014681,451.661867 L336.014681,451.661867 C337.981218,438.393213 339,424.815581 339,411 C339,357.299729 323.607965,307.194461 296.995003,264.855291 C276.571276,226.418694 265,182.560655 265,136 C265,123.570747 265.824581,111.334085 267.422022,99.3417337 L267.422022,99.3417337 C245.970308,95.3812723 227.88344,82.4537008 219.961211,62.8454945 C216.190385,53.5123735 215.127506,43.6682968 216.416382,34 L106.27373,34 C108.8015,49.3874881 105.931827,64.9214363 96.9364033,77.7682327 C83.9851733,96.2645061 61.4566653,104.733607 38.0411394,102.325658 L38.0411397,102.325655 Z" id="note-border" fill="#417505" sketch:type="MSShapeGroup"></path>
            <path d="M106.706403,297.971149 C116.712329,335.313776 159.420514,356.315778 202.097802,344.880433 C244.77509,333.445088 271.260462,293.902729 261.254535,256.560101 C251.248608,219.217474 208.540424,198.215472 165.863136,209.650817 C123.185847,221.086162 96.7004758,260.628521 106.706403,297.971149 Z M229.59611,264.385936 L231.374972,284.718425 L155.006531,291.399798 C155.415928,292.344278 155.867067,293.579176 156.359961,295.10453 C156.852854,296.629884 157.268728,297.835191 157.607594,298.720489 L146.517145,299.690778 C145.921292,298.109078 145.161692,296.149617 144.238321,293.812333 C143.31495,291.47505 142.366868,289.041937 141.394046,286.512921 C140.421225,283.983904 139.451254,281.487354 138.484107,279.023194 C137.516959,276.559035 136.691694,274.409261 136.008288,272.573809 L229.59611,264.385936 Z" id="dollar-value" fill="#417506" sketch:type="MSShapeGroup"></path>
            <path d="M496,549.17581 L353.5,549.175834 L353.5,548.862213 L353.5,548.862213 C377.028181,508.331626 390.5,461.23907 390.5,411.000002 C390.5,364.439347 378.928724,320.581308 358.504997,282.144711 C331.892041,239.805561 316.5,189.700283 316.5,136.000002 C316.5,86.5284647 329.56333,40.108032 352.428693,0 L496,7.83186877e-07 L496,6.90451245e-07 L369.428693,0 C346.56333,40.108032 333.5,86.5284647 333.5,136.000002 C333.5,189.700283 348.892041,239.805561 375.504997,282.144711 C395.928724,320.581308 407.5,364.439347 407.5,411.000002 C407.5,461.23907 394.028181,508.331626 370.5,548.862213 L370.5,548.862213 L370.5,549.175834 L496,549.175812 L496,549.17581 L496,549.17581 Z" id="note-stack-1" fill="#417505" sketch:type="MSShapeGroup"></path>
            <path d="M528,549.17581 L385.5,549.175834 L385.5,548.862213 L385.5,548.862213 C409.028181,508.331626 422.5,461.23907 422.5,411.000002 C422.5,364.439347 410.928724,320.581308 390.504997,282.144711 C363.892041,239.805561 348.5,189.700283 348.5,136.000002 C348.5,86.5284647 361.56333,40.108032 384.428693,0 L528,7.83186877e-07 L528,6.90451245e-07 L401.428693,0 C378.56333,40.108032 365.5,86.5284647 365.5,136.000002 C365.5,189.700283 380.892041,239.805561 407.504997,282.144711 C427.928724,320.581308 439.5,364.439347 439.5,411.000002 C439.5,461.23907 426.028181,508.331626 402.5,548.862213 L402.5,548.862213 L402.5,549.175834 L528,549.175812 L528,549.17581 L528,549.17581 Z" id="note-stack-2" fill="#417505" sketch:type="MSShapeGroup"></path>
        </g>
    </g>
</svg>